<svg xmlns="http://www.w3.org/2000/svg" xmlns:xlink="http://www.w3.org/1999/xlink" aria-hidden="true" role="img" width="396" height="125.02408143631023" viewBox="0 0 370 116.81542962483532" class="looka-1j8o68f"><defs id="SvgjsDefs2280"></defs><g id="SvgjsG2281" featurekey="v37d4h-0" transform="matrix(1.2979492180537258,0,0,1.2979492180537258,-13.517982615450064,-6.489745471358212)" fill="#4f46e5"><path xmlns="http://www.w3.org/2000/svg" d="M24.9656601,51.9397316c-4.9242058,0-9.5849781-1.2395363-13.126399-3.4892044  c-0.5048485-0.3203468-0.9799328-0.6586266-1.4243832-1.0096092v4.3152733c0,4.5626068,6.6630201,8.4163704,14.5507822,8.4163704  s14.5516548-3.8537636,14.5516548-8.4163704V47.440918c-0.4436684,0.3509827-0.9187546,0.6892624-1.4243851,1.0096092  C34.5514221,50.7001953,29.8898659,51.9397316,24.9656601,51.9397316z"></path><path xmlns="http://www.w3.org/2000/svg" d="M24.9656601,65.2782211c-4.9242058,0-9.5849781-1.2395401-13.126399-3.4896431  c-0.5048485-0.3216553-0.9799328-0.6581917-1.4243832-1.0096092v4.3156204c0,4.5626068,6.6630201,8.4163742,14.5507822,8.4163742  s14.5516548-3.8537674,14.5516548-8.4163742v-4.3156204c-0.4436684,0.3514175-0.9187546,0.6879539-1.4243851,1.0096092  C34.5514221,64.038681,29.8898659,65.2782211,24.9656601,65.2782211z"></path><path xmlns="http://www.w3.org/2000/svg" d="M24.9656601,30.5444756c-7.8877621,0-14.5507822,3.8542023-14.5507822,8.4163704  c0,4.5617332,6.6630201,8.4171524,14.5507822,8.4171524s14.5516548-3.8554192,14.5516548-8.4171524  C39.5173149,34.3986778,32.8534241,30.5444756,24.9656601,30.5444756z"></path><path xmlns="http://www.w3.org/2000/svg" d="M58.3557816,39.2080917c-4.9250755,0-9.58498-1.240406-13.1255302-3.4908562  c-0.5057182-0.3204346-0.9799309-0.6581917-1.424469-1.0083923v4.3148346c0,4.5630417,6.6631088,8.4163704,14.5499992,8.4163704  c7.887764,0,14.5525208-3.8533287,14.5525208-8.4163704v-4.3148346c-0.4445343,0.3502007-0.9187469,0.6879578-1.4252548,1.0083923  C67.9407578,37.9676857,63.2799873,39.2080917,58.3557816,39.2080917z"></path><path xmlns="http://www.w3.org/2000/svg" d="M58.3557816,52.5452728c-4.9250755,0-9.58498-1.2395363-13.1255302-3.4895515  c-0.5057182-0.3204384-0.9799309-0.6582794-1.424469-1.0092621v4.3152733c0,4.5621681,6.6631088,8.4172363,14.5499992,8.4172363  c7.887764,0,14.5525208-3.8550682,14.5525208-8.4172363v-4.3152733c-0.4445343,0.3509827-0.9187469,0.6888237-1.4252548,1.0092621  C67.9407578,51.3057365,63.2799873,52.5452728,58.3557816,52.5452728z"></path><path xmlns="http://www.w3.org/2000/svg" d="M58.3557816,26.3328571c-4.9250755,0-9.58498-1.2386665-13.1255302-3.4900761  c-0.5057182-0.3203487-0.9799309-0.6577549-1.424469-1.0091743v4.3157082c0,4.5617352,6.6631088,8.4171524,14.5499992,8.4171524  c7.887764,0,14.5525208-3.8554173,14.5525208-8.4171524v-4.3157082c-0.4445343,0.3514194-0.9187469,0.6888256-1.4252548,1.0091743  C67.9407578,25.0941906,63.2799873,26.3328571,58.3557816,26.3328571z"></path><path xmlns="http://www.w3.org/2000/svg" d="M58.3557816,4.9999995c-7.8868904,0-14.5499992,3.8537641-14.5499992,8.4172382  c0,4.5626049,6.6631088,8.4163685,14.5499992,8.4163685c7.887764,0,14.5525208-3.8537636,14.5525208-8.4163685  C72.9083023,8.8537636,66.2435455,4.9999995,58.3557816,4.9999995z"></path><path xmlns="http://www.w3.org/2000/svg" d="M72.9103699,86.7658691c-4.9242325,0-9.5857849-1.2391052-13.1272697-3.4895554  c-0.5056343-0.3204346-0.9790649-0.6582794-1.4260597-1.0092621v4.315712C58.3570404,91.1444931,65.0218048,95,72.9103699,95  c7.8868942,0,14.5491257-3.8555069,14.5491257-8.4172363v-4.315712c-0.4436646,0.3509827-0.9187469,0.6888275-1.4227295,1.0092621  C82.4962158,85.5267639,77.8345718,86.7658691,72.9103699,86.7658691z"></path><path xmlns="http://www.w3.org/2000/svg" d="M72.9103699,65.1143188c-7.8885651,0-14.5533295,3.8538437-14.5533295,8.4159317  c0,4.5617294,6.6647644,8.4172363,14.5533295,8.4172363c7.8868942,0,14.5491257-3.8555069,14.5491257-8.4172363  C87.4594955,68.9681625,80.7972641,65.1143188,72.9103699,65.1143188z"></path></g><g id="SvgjsG2282" featurekey="UxBHKT-0" transform="matrix(3.3060035826473153,0,0,3.3060035826473153,117.88415736029214,11.726263826511488)" fill="#4f46e5"><path d="M4.88 20 l-3 0 l0 -8.26 l-1.24 0 l0 -2.56 l1.24 0 q0.08 -2.14 1.22 -3.26 t3.16 -1.12 q0.6 0 1.32 0.18 l-0.16 2.42 q-0.38 -0.12 -0.82 -0.12 q-1.08 0 -1.4 0.54 t-0.32 1.36 l1.98 0 l0 2.56 l-1.98 0 l0 8.26 z M11.98 7.369999999999999 q-0.48 0.47 -1.16 0.47 q-0.7 0 -1.19 -0.47 t-0.49 -1.15 q0 -0.66 0.49 -1.13 t1.19 -0.47 q0.68 0 1.16 0.47 t0.48 1.13 q0 0.68 -0.48 1.15 z M9.32 9.02 l3 0 l0 10.98 l-3 0 l0 -10.98 z M31.689999999999998 10.04 q1.13 1.24 1.13 3.46 l0 6.5 l-3.02 0 l0 -6.5 q0 -1.18 -0.59 -1.7 t-1.55 -0.52 q-0.8 0 -1.44 0.6 t-0.66 2 l0 6.12 l-3.02 0 l0 -6.5 q0 -1.18 -0.59 -1.7 t-1.53 -0.52 q-0.86 0 -1.49 0.64 t-0.63 2.26 l-0.02 5.82 l-2.98 0 l0 -11 l2.98 0 l0 1 q0.58 -0.52 1.4 -0.86 t1.5 -0.34 q2.32 0 3.54 1.5 q0.62 -0.7 1.54 -1.1 t2 -0.4 q2.3 0 3.43 1.24 z M44.26 18.9 q-0.38 0.52 -1.31 0.93 t-2.03 0.41 q-1.7 0 -2.95 -0.76 t-1.91 -2.07 t-0.66 -2.91 t0.66 -2.91 t1.91 -2.07 t2.95 -0.76 q1.14 0 2.01 0.39 t1.33 0.99 l0 -1.14 l2.96 0 l0 11 l-2.96 0 l0 -1.1 z M43.56 12.25 q-0.82 -0.87 -2.2 -0.87 q-1.4 0 -2.21 0.87 t-0.81 2.25 q0 1.34 0.83 2.22 t2.19 0.88 q1.4 0 2.21 -0.83 t0.81 -2.27 q0 -1.38 -0.82 -2.25 z M53.14 10.1 q0.38 -0.52 1.31 -0.93 t2.03 -0.41 q1.7 0 2.95 0.76 t1.91 2.07 t0.66 2.91 t-0.66 2.91 t-1.91 2.07 t-2.95 0.76 q-1.14 0 -2.01 -0.39 t-1.33 -0.99 l0 4.68 l-2.96 0 l0 -14.54 l2.96 0 l0 1.1 z M53.839999999999996 16.75 q0.82 0.87 2.2 0.87 q1.4 0 2.21 -0.87 t0.81 -2.25 q0 -1.34 -0.83 -2.22 t-2.19 -0.88 q-1.4 0 -2.21 0.83 t-0.81 2.27 q0 1.38 0.82 2.25 z M67.39999999999999 10.1 q0.38 -0.52 1.31 -0.93 t2.03 -0.41 q1.7 0 2.95 0.76 t1.91 2.07 t0.66 2.91 t-0.66 2.91 t-1.91 2.07 t-2.95 0.76 q-1.14 0 -2.01 -0.39 t-1.33 -0.99 l0 4.68 l-2.96 0 l0 -14.54 l2.96 0 l0 1.1 z M68.1 16.75 q0.82 0.87 2.2 0.87 q1.4 0 2.21 -0.87 t0.81 -2.25 q0 -1.34 -0.83 -2.22 t-2.19 -0.88 q-1.4 0 -2.21 0.83 t-0.81 2.27 q0 1.38 0.82 2.25 z"></path></g></svg>