<svg xmlns="http://www.w3.org/2000/svg" xmlns:xlink="http://www.w3.org/1999/xlink" aria-hidden="true" role="img" width="370" height="370" viewBox="0 0 100 116.81542962483532" class="looka-1j8o68f"><defs id="SvgjsDefs2280"></defs><g id="SvgjsG2281" featurekey="v37d4h-0" transform="matrix(1.2979492180537258,0,0,1.2979492180537258,-13.517982615450064,-6.489745471358212)" fill="#4f46e5"><path xmlns="http://www.w3.org/2000/svg" d="M24.9656601,51.9397316c-4.9242058,0-9.5849781-1.2395363-13.126399-3.4892044  c-0.5048485-0.3203468-0.9799328-0.6586266-1.4243832-1.0096092v4.3152733c0,4.5626068,6.6630201,8.4163704,14.5507822,8.4163704  s14.5516548-3.8537636,14.5516548-8.4163704V47.440918c-0.4436684,0.3509827-0.9187546,0.6892624-1.4243851,1.0096092  C34.5514221,50.7001953,29.8898659,51.9397316,24.9656601,51.9397316z"></path><path xmlns="http://www.w3.org/2000/svg" d="M24.9656601,65.2782211c-4.9242058,0-9.5849781-1.2395401-13.126399-3.4896431  c-0.5048485-0.3216553-0.9799328-0.6581917-1.4243832-1.0096092v4.3156204c0,4.5626068,6.6630201,8.4163742,14.5507822,8.4163742  s14.5516548-3.8537674,14.5516548-8.4163742v-4.3156204c-0.4436684,0.3514175-0.9187546,0.6879539-1.4243851,1.0096092  C34.5514221,64.038681,29.8898659,65.2782211,24.9656601,65.2782211z"></path><path xmlns="http://www.w3.org/2000/svg" d="M24.9656601,30.5444756c-7.8877621,0-14.5507822,3.8542023-14.5507822,8.4163704  c0,4.5617332,6.6630201,8.4171524,14.5507822,8.4171524s14.5516548-3.8554192,14.5516548-8.4171524  C39.5173149,34.3986778,32.8534241,30.5444756,24.9656601,30.5444756z"></path><path xmlns="http://www.w3.org/2000/svg" d="M58.3557816,39.2080917c-4.9250755,0-9.58498-1.240406-13.1255302-3.4908562  c-0.5057182-0.3204346-0.9799309-0.6581917-1.424469-1.0083923v4.3148346c0,4.5630417,6.6631088,8.4163704,14.5499992,8.4163704  c7.887764,0,14.5525208-3.8533287,14.5525208-8.4163704v-4.3148346c-0.4445343,0.3502007-0.9187469,0.6879578-1.4252548,1.0083923  C67.9407578,37.9676857,63.2799873,39.2080917,58.3557816,39.2080917z"></path><path xmlns="http://www.w3.org/2000/svg" d="M58.3557816,52.5452728c-4.9250755,0-9.58498-1.2395363-13.1255302-3.4895515  c-0.5057182-0.3204384-0.9799309-0.6582794-1.424469-1.0092621v4.3152733c0,4.5621681,6.6631088,8.4172363,14.5499992,8.4172363  c7.887764,0,14.5525208-3.8550682,14.5525208-8.4172363v-4.3152733c-0.4445343,0.3509827-0.9187469,0.6888237-1.4252548,1.0092621  C67.9407578,51.3057365,63.2799873,52.5452728,58.3557816,52.5452728z"></path><path xmlns="http://www.w3.org/2000/svg" d="M58.3557816,26.3328571c-4.9250755,0-9.58498-1.2386665-13.1255302-3.4900761  c-0.5057182-0.3203487-0.9799309-0.6577549-1.424469-1.0091743v4.3157082c0,4.5617352,6.6631088,8.4171524,14.5499992,8.4171524  c7.887764,0,14.5525208-3.8554173,14.5525208-8.4171524v-4.3157082c-0.4445343,0.3514194-0.9187469,0.6888256-1.4252548,1.0091743  C67.9407578,25.0941906,63.2799873,26.3328571,58.3557816,26.3328571z"></path><path xmlns="http://www.w3.org/2000/svg" d="M58.3557816,4.9999995c-7.8868904,0-14.5499992,3.8537641-14.5499992,8.4172382  c0,4.5626049,6.6631088,8.4163685,14.5499992,8.4163685c7.887764,0,14.5525208-3.8537636,14.5525208-8.4163685  C72.9083023,8.8537636,66.2435455,4.9999995,58.3557816,4.9999995z"></path><path xmlns="http://www.w3.org/2000/svg" d="M72.9103699,86.7658691c-4.9242325,0-9.5857849-1.2391052-13.1272697-3.4895554  c-0.5056343-0.3204346-0.9790649-0.6582794-1.4260597-1.0092621v4.315712C58.3570404,91.1444931,65.0218048,95,72.9103699,95  c7.8868942,0,14.5491257-3.8555069,14.5491257-8.4172363v-4.315712c-0.4436646,0.3509827-0.9187469,0.6888275-1.4227295,1.0092621  C82.4962158,85.5267639,77.8345718,86.7658691,72.9103699,86.7658691z"></path><path xmlns="http://www.w3.org/2000/svg" d="M72.9103699,65.1143188c-7.8885651,0-14.5533295,3.8538437-14.5533295,8.4159317  c0,4.5617294,6.6647644,8.4172363,14.5533295,8.4172363c7.8868942,0,14.5491257-3.8555069,14.5491257-8.4172363  C87.4594955,68.9681625,80.7972641,65.1143188,72.9103699,65.1143188z"></path></g></svg>